<svg xmlns="http://www.w3.org/2000/svg" width="28" height="28" viewBox="0 0 28 28">
  <g id="Group_452" data-name="Group 452" transform="translate(4973.585 -385.975)">
    <g id="Group_1314" data-name="Group 1314" transform="translate(-4973.585 385.975)">
      <g id="Group_92" data-name="Group 92" transform="translate(0 0)">
        <path id="Path_313" data-name="Path 313" d="M118.861,2367.249a.821.821,0,0,0-.82.821,12.355,12.355,0,1,1-6.455-10.86l-1.026,1.025a.82.82,0,0,0,.58,1.4h3.925a.821.821,0,0,0,.82-.82v-3.925a.82.82,0,0,0-1.4-.58l-1.7,1.7a14,14,0,1,0,6.892,12.063.82.82,0,0,0-.82-.821Zm0,0" transform="translate(-91.682 -2354.069)" fill="#fff"/>
        <path id="Path_314" data-name="Path 314" d="M125.586,2375.75H121.9v-3.683a.679.679,0,1,0-1.358,0v4.363a.679.679,0,0,0,.679.678h4.363a.679.679,0,1,0,0-1.358Zm0,0" transform="translate(-106.62 -2363.032)" fill="#fff"/>
      </g>
    </g>
  </g>
</svg>
