<svg id="Group_451" data-name="Group 451" xmlns="http://www.w3.org/2000/svg" width="28" height="28" viewBox="0 0 28 28">
  <g id="Group_90" data-name="Group 90" transform="translate(0 0)">
    <path id="Path_309" data-name="Path 309" d="M585.929,2651.762H564.345a3.214,3.214,0,0,1-3.208-3.214v-19.285a3.214,3.214,0,0,1,3.208-3.214h21.584a3.214,3.214,0,0,1,3.208,3.214v19.285a3.214,3.214,0,0,1-3.208,3.214ZM564.345,2627.8a1.462,1.462,0,0,0-1.458,1.461v19.285a1.462,1.462,0,0,0,1.458,1.46h21.584a1.462,1.462,0,0,0,1.458-1.46v-19.285a1.462,1.462,0,0,0-1.458-1.461Zm0,0" transform="translate(-561.137 -2623.762)" fill="#fff"/>
    <path id="Path_310" data-name="Path 310" d="M588.262,2640.982h-26.25a.858.858,0,1,1,0-1.716h26.25a.858.858,0,1,1,0,1.716Zm0,0" transform="translate(-561.137 -2629.921)" fill="#fff"/>
    <path id="Path_311" data-name="Path 311" d="M573.008,2628.508a.858.858,0,0,1-.858-.858V2622.5a.858.858,0,1,1,1.716,0v5.147a.858.858,0,0,1-.858.858Zm0,0" transform="translate(-566.309 -2621.645)" fill="#fff"/>
    <path id="Path_312" data-name="Path 312" d="M600.541,2628.508a.858.858,0,0,1-.858-.858V2622.5a.858.858,0,1,1,1.716,0v5.147a.858.858,0,0,1-.858.858Zm0,0" transform="translate(-579.24 -2621.645)" fill="#fff"/>
  </g>
</svg>
